<svg xmlns="http://www.w3.org/2000/svg" viewBox="0 0 128 128" role="img" aria-labelledby="title desc">
  <title id="title">Grounded AI Tutor flame icon</title>
  <desc id="desc">A friendly red and orange flame with large curious eyes on a dark rounded square.</desc>
  <rect width="128" height="128" rx="28" fill="#162033"/>
  <path d="M19 78c0-17 7-31 24-45-2 12 1 21 8 27 1-19 8-36 20-50 8 18 9 31 5 42 10-6 17-15 20-29 17 17 23 37 17 57-7 23-26 36-49 36-26 0-45-15-45-38Z" fill="#F24B22"/>
  <path d="M36 84c0-11 5-21 16-31-1 9 2 16 8 21 1-13 6-24 13-34 6 13 7 23 4 31 7-4 12-10 15-19 9 10 12 22 8 34-5 15-18 23-35 23-17 0-29-10-29-25Z" fill="#FFB423"/>
  <ellipse cx="56" cy="79" rx="14" ry="19" fill="#fff" transform="rotate(8 56 79)"/>
  <ellipse cx="82" cy="80" rx="15" ry="20" fill="#fff" transform="rotate(-8 82 80)"/>
  <ellipse cx="59" cy="74" rx="6" ry="8" fill="#111827" transform="rotate(8 59 74)"/>
  <ellipse cx="85" cy="75" rx="7" ry="9" fill="#111827" transform="rotate(-8 85 75)"/>
  <path d="M66 96c3 3 6 3 9 0" fill="none" stroke="#A52A20" stroke-width="3" stroke-linecap="round"/>
</svg>
